<?xml version="1.0" standalone="no"?>
<!DOCTYPE svg PUBLIC "-//W3C//DTD SVG 20010904//EN"
 "http://www.w3.org/TR/2001/REC-SVG-20010904/DTD/svg10.dtd">
<svg version="1.0" xmlns="http://www.w3.org/2000/svg"
 width="200.000000pt" height="200.000000pt" viewBox="0 0 200.000000 200.000000"
 preserveAspectRatio="xMidYMid meet">
<metadata>
Created by potrace 1.16, written by Peter Selinger 2001-2019
</metadata>
<g transform="translate(0.000000,200.000000) scale(0.100000,-0.100000)"
fill="#000000" stroke="none">
<path d="M587 1620 c-81 -21 -134 -66 -157 -135 -8 -24 -18 -35 -31 -35 -32 0
-59 -36 -59 -79 0 -22 -5 -41 -10 -43 -14 -4 -39 -75 -40 -110 0 -15 5 -39 11
-54 10 -27 9 -27 -8 -11 -43 38 -162 64 -178 37 -13 -22 74 -130 105 -130 23
0 8 -18 -19 -23 -35 -7 -103 -72 -99 -95 7 -35 114 -36 170 -2 39 23 73 70 73
100 0 18 5 25 20 25 14 0 19 -6 17 -20 -12 -64 -13 -106 -4 -138 6 -21 8 -37
6 -37 -3 0 -23 9 -45 21 -50 25 -142 24 -147 -2 -5 -27 46 -77 99 -97 l50 -18
-41 -19 c-66 -30 -119 -106 -89 -127 21 -14 107 -1 144 22 l34 21 -10 -37
c-15 -51 9 -144 37 -144 17 0 61 58 70 94 4 16 15 31 24 33 17 4 16 9 -7 59
-27 60 -23 79 16 69 68 -16 133 -87 142 -155 4 -22 0 -25 -27 -28 -30 -3 -52
-31 -36 -46 13 -14 101 -5 137 14 22 11 40 20 40 20 1 0 0 -24 -3 -53 -3 -35
1 -66 12 -91 15 -37 17 -38 38 -24 53 34 82 139 57 205 -9 24 -7 30 10 44 25
20 27 49 6 89 -9 17 -13 40 -9 54 9 38 -15 105 -52 144 l-34 37 -18 -23 -18
-23 -32 68 -33 68 26 65 c15 36 34 71 43 78 9 6 37 12 64 12 l48 0 2 38 c1 20
3 51 4 67 1 17 5 38 9 47 5 13 -2 29 -24 53 -17 20 -31 45 -31 56 0 25 -23 71
-44 88 -9 8 -16 21 -16 31 0 10 -6 22 -13 28 -18 16 -135 23 -180 12z"/>
<path d="M1284 823 c-3 -16 -12 -48 -20 -73 l-13 -45 5 48 5 47 -45 0 c-35 0
-48 -5 -60 -22 -16 -23 -22 -97 -8 -99 37 -6 104 -5 108 3 3 5 11 5 18 -1 7
-6 25 -9 41 -8 25 2 29 -2 30 -23 0 -21 6 -26 31 -28 27 -3 33 1 42 27 l10 29
85 -4 84 -3 16 52 c16 51 16 51 12 11 -6 -51 6 -62 65 -59 60 3 58 2 70 26 14
26 6 36 -15 19 -17 -14 -18 -9 -6 43 8 35 7 37 -15 37 -20 0 -25 -6 -30 -40
-9 -55 -25 -61 -22 -8 l3 43 -47 3 -48 3 -6 -41 c-4 -22 -11 -43 -16 -46 -6
-4 -7 12 -3 40 7 42 5 46 -13 46 -15 0 -22 -11 -31 -46 -15 -57 -25 -53 -12 5
8 39 8 41 -15 41 -19 0 -24 -7 -30 -37 -4 -21 -11 -45 -16 -53 -9 -15 -7 3 8
65 6 24 4 25 -38 25 -49 0 -67 -14 -87 -65 -11 -30 -11 -30 -6 8 3 20 8 53 11
72 6 31 4 35 -15 35 -14 0 -22 -8 -27 -27z"/>
</g>
</svg>
